<svg width="571" height="671" viewBox="0 0 571 671" fill="none" xmlns="http://www.w3.org/2000/svg">
<g clip-path="url(#clip0_101_2)">
<path d="M290.067 525.314C257.687 482.57 270.528 433.785 251.558 399.751C178.851 269.312 268.379 281.329 369.6 306.696L369.841 309.51C305.418 319.452 263.05 352.608 253.599 400.476C246.255 437.677 259.732 481.296 291.549 523.297L290.067 525.314Z" fill="#F0F0F0"/>
<path d="M361.195 366.235L360.519 363.552C396.663 347.165 393.557 298.357 425.894 287.212C672.228 202.308 429.07 192.733 374.376 147.823C325.466 107.662 272.162 60.9691 204.419 36.9211L204.959 34.1832C272.998 58.3371 333.65 97.9272 375.739 145.661C418.041 193.634 436.578 244.162 427.936 287.936C421.121 322.455 398.042 349.53 361.195 366.235Z" fill="#F0F0F0"/>
<path d="M262.808 272.163C246.29 270.858 265.78 259.928 267.085 243.411C267.394 239.482 268.473 235.653 270.262 232.141C272.051 228.63 274.514 225.506 277.511 222.946C280.508 220.387 283.98 218.444 287.728 217.227C291.476 216.01 295.427 215.543 299.356 215.853C303.284 216.164 307.113 217.245 310.624 219.035C314.134 220.826 317.257 223.29 319.815 226.288C322.373 229.286 324.315 232.759 325.53 236.507C326.746 240.256 327.211 244.207 326.899 248.136C325.594 264.653 279.325 273.468 262.808 272.163Z" fill="#6C63FF"/>
<path d="M421.398 169.333C417.471 169.023 413.643 167.942 410.133 166.152C406.623 164.363 403.5 161.899 400.943 158.903C398.385 155.906 396.442 152.436 395.226 148.688C394.01 144.941 393.543 140.991 393.854 137.064C395.158 120.547 362.358 109.498 378.875 110.803C395.392 112.107 454.972 125.272 453.667 141.789C453.357 145.716 452.276 149.544 450.487 153.054C448.697 156.563 446.234 159.686 443.237 162.244C440.241 164.802 436.77 166.744 433.023 167.961C429.275 169.177 425.325 169.643 421.398 169.333V169.333Z" fill="#6C63FF"/>
<path d="M457.55 131.682C459.727 136.198 458.443 141.415 455.569 145.313C452.299 149.748 447.098 151.934 441.763 152.656C436.036 153.351 430.228 152.873 424.692 151.251C419.352 149.709 413.81 146.406 412.708 140.504C411.974 136.571 413.652 132.373 417.737 131.283C419.375 130.869 421.093 130.883 422.724 131.326C424.355 131.768 425.844 132.624 427.049 133.809C430.44 137.339 430.182 143.005 428.027 147.105C425.491 151.928 420.419 154.589 415.203 155.467C409.002 156.511 402.771 155.052 396.938 152.977C390.598 150.722 384.447 147.914 378.235 145.334C366.12 140.303 353.745 135.577 340.717 133.573C320.816 130.512 297.197 135.279 285.014 152.726C278.437 162.145 276.574 173.958 277.99 185.195C279.483 197.045 284.682 207.935 291.568 217.579C295.214 222.595 299.195 227.359 303.483 231.838C304.879 233.195 305.84 234.937 306.244 236.842C306.648 238.747 306.476 240.729 305.75 242.537C301.976 251.81 286.886 248.855 285.762 239.296C285.251 234.952 287.674 230.479 290.702 227.533C294.138 224.319 298.468 222.221 303.12 221.517C312.912 219.882 323.262 223.512 330.747 229.818C339.203 236.942 343.963 247.769 346.47 258.308C349.325 270.307 349.471 282.649 349.742 294.915C350.019 307.466 350.496 320.167 354.097 332.282C357.026 342.033 361.547 351.232 367.477 359.508C379.321 376.181 396.158 388.659 415.556 395.138C420.249 396.661 425.06 397.788 429.941 398.507C431.851 398.791 432.079 395.799 430.177 395.517C408.903 392.363 389.339 380.844 375.334 364.653C368.315 356.576 362.768 347.329 358.945 337.335C354.378 325.297 353.22 312.51 352.847 299.734C352.466 286.685 352.674 273.519 350.061 260.665C347.752 249.301 343.222 237.794 334.832 229.515C327.435 222.215 316.852 217.698 306.392 218.183C296.661 218.634 286.255 223.994 283.363 233.923C282.006 238.582 282.869 243.584 286.426 247.045C288.454 248.968 290.975 250.293 293.71 250.871C296.444 251.449 299.286 251.258 301.919 250.319C304.779 249.082 307.077 246.824 308.365 243.986C309.653 241.148 309.839 237.932 308.887 234.965C308.087 232.785 306.8 230.817 305.125 229.21C296.346 219.834 288.289 209.342 283.917 197.133C279.839 185.746 279.003 172.647 283.706 161.316C292.609 139.866 318.448 133.42 339.495 136.418C353.269 138.38 366.311 143.595 379.07 148.929C385.586 151.653 392.059 154.681 398.816 156.766C404.866 158.633 411.358 159.57 417.591 158.039C423.031 156.703 428.031 153.54 430.667 148.48C433.061 143.883 433.474 138.051 430.627 133.548C426.511 127.038 415.146 125.573 411.005 132.885C408.257 137.737 409.607 143.95 413.216 147.974C417.262 152.486 423.321 154.328 429.12 155.258C440.077 157.016 453.569 155.635 459.431 144.812C461.846 140.354 462.498 135.038 460.251 130.377C460.07 130.032 459.762 129.772 459.393 129.65C459.023 129.528 458.62 129.555 458.27 129.724C457.919 129.894 457.648 130.193 457.514 130.558C457.38 130.923 457.393 131.326 457.55 131.682L457.55 131.682Z" fill="#3F3D56"/>
<path d="M422.305 399.118C404.79 397.734 357.957 421.701 345.279 411.39C343.695 410.112 342.163 408.77 340.682 407.366C335.835 402.82 331.554 397.706 327.932 392.134C327.304 391.192 326.707 390.242 326.131 389.284C324.1 385.879 322.311 382.336 320.779 378.679C320.511 378.016 320.243 377.343 319.975 376.67C312.841 358.232 312.479 337.861 318.955 319.182C325.431 300.503 338.324 284.727 355.34 274.662C372.356 264.597 392.391 260.895 411.88 264.216C431.369 267.536 449.048 277.664 461.771 292.796C462.45 293.592 463.108 294.406 463.754 295.24C470.212 303.511 475.047 312.929 478.003 322.998C478.002 323.008 478.012 323.009 478.011 323.019C482.419 338.117 482.491 354.151 478.218 369.289L478.216 369.309C478.12 369.642 478.023 369.976 477.917 370.308C466.977 407.332 462.33 402.28 422.305 399.118Z" fill="#6C63FF"/>
<path d="M321.157 378.719C321.03 378.721 320.903 378.708 320.779 378.679C320.511 378.016 320.243 377.343 319.975 376.67C320.088 376.387 320.285 376.146 320.538 375.978C320.791 375.81 321.09 375.723 321.394 375.728C322.91 375.723 324.42 375.55 325.898 375.212C338.726 372.313 346.204 359.181 349.407 347.457C353.339 333.112 353.393 317.698 360.499 304.316C363.26 298.817 367.318 294.073 372.324 290.495C377.82 286.77 384.5 285.208 391.078 286.108C406.555 288.153 417.851 300.07 432.22 304.976C438.139 306.999 444.439 307.497 450.359 305.196C455.388 303.246 459.975 299.395 461.014 293.86C461.049 293.636 461.135 293.423 461.266 293.238C461.398 293.053 461.57 292.902 461.771 292.796C462.45 293.592 463.108 294.406 463.754 295.24C463.523 296.239 463.188 297.211 462.753 298.14C460.228 303.437 455.193 306.861 449.711 308.575C443.365 310.552 436.764 309.799 430.589 307.586C416.191 302.426 404.348 289.674 388.451 288.88C374.673 288.192 365.151 299.518 360.566 311.333C354.898 325.952 355.74 342.34 349.376 356.743C344.368 368.074 334.332 378.667 321.157 378.719Z" fill="#3F3D56"/>
<path d="M327.932 392.134C327.304 391.192 326.707 390.242 326.131 389.284C326.27 389.172 326.432 389.092 326.605 389.049C326.778 389.005 326.958 389 327.134 389.032C339.99 390.549 352.94 387.097 363.336 379.383C367.897 376.047 371.862 371.965 375.063 367.309C378.387 362.436 380.395 356.957 382.648 351.547C384.864 346.225 387.466 340.843 391.873 336.989C396.367 333.06 402.165 331.412 408.037 331.234C421.953 330.818 434.087 338.728 447.631 340.36C453.672 341.088 459.67 340.218 464.841 336.844C469.305 333.927 472.555 329.359 472.346 323.875C472.268 322.063 474.907 322.182 475.293 323.777C475.319 323.887 475.334 323.999 475.337 324.111C475.575 330.49 471.653 335.948 466.491 339.322C460.493 343.252 453.485 344.223 446.472 343.228C432.902 341.293 420.36 333.08 406.319 334.318C403.372 334.488 400.494 335.275 397.871 336.628C395.248 337.981 392.939 339.871 391.093 342.173C387.398 346.917 385.445 352.711 383.165 358.209C381.002 363.703 377.977 368.817 374.204 373.36C370.386 377.795 365.884 381.591 360.867 384.605C350.999 390.628 339.437 393.271 327.932 392.134V392.134Z" fill="#3F3D56"/>
<path d="M345.279 411.39C343.695 410.112 342.162 408.77 340.682 407.366C348.321 409.311 356.283 409.642 364.058 408.34C373.84 406.77 383.069 402.759 390.889 396.676C394.784 393.627 398.22 390.034 401.091 386.007C404.364 381.4 407.224 376.31 412.16 373.259C422.874 366.642 435.698 372.691 446.395 375.943C451.978 377.648 457.975 378.804 463.662 376.916C468.071 375.449 472.35 372.196 473.222 367.389C473.561 365.5 476.563 365.727 476.212 367.626C476.144 367.981 476.066 368.336 475.978 368.69C474.602 373.908 470.333 377.674 465.293 379.503C458.716 381.872 451.902 380.762 445.369 378.771C434.623 375.495 420.58 368.758 410.858 378.051C406.757 381.97 404.241 387.279 400.542 391.561C397.243 395.399 393.437 398.77 389.228 401.581C376.303 410.19 360.638 413.687 345.279 411.39Z" fill="#3F3D56"/>
<path d="M143.26 334.364L145.134 351.746L144.031 374.538L194.516 368.54L199.26 334.364L193.216 334.424L143.26 334.364Z" fill="#FFB6B6"/>
<path d="M203.5 280.5L187.891 274.727L181.221 265.041L157.229 262.642L142.43 272.123L130.023 278.441L130.235 311.428L144.5 370.5L195.5 368.5L202.213 326.377C202.213 326.377 217.808 305.43 201.013 293.434L203.5 280.5Z" fill="#CCCCCC"/>
<path d="M117.074 649.938H128.112L133.364 607.364H117.074V649.938Z" fill="#FFB6B6"/>
<path d="M113.472 642.378L131.106 641.326V648.881L147.871 660.459C148.699 661.031 149.323 661.853 149.651 662.804C149.979 663.755 149.995 664.786 149.695 665.747C149.396 666.708 148.797 667.548 147.986 668.144C147.176 668.74 146.196 669.062 145.19 669.062H124.196L120.577 661.589L119.164 669.062H111.249L113.472 642.378Z" fill="#2F2E41"/>
<path d="M179.074 649.938H190.112L195.364 607.364H179.074V649.938Z" fill="#FFB6B6"/>
<path d="M175.472 642.378L193.106 641.326V648.881L209.871 660.459C210.699 661.031 211.323 661.853 211.651 662.804C211.979 663.755 211.995 664.786 211.695 665.747C211.396 666.708 210.797 667.548 209.986 668.144C209.176 668.74 208.196 669.062 207.19 669.062H186.196L182.577 661.589L181.164 669.062H173.249L175.472 642.378Z" fill="#2F2E41"/>
<path d="M112.312 613.224H112.432L114.555 544.001C113.181 541.351 112.484 538.403 112.525 535.419C112.567 532.434 113.346 529.506 114.792 526.896L115.096 526.346L114.308 522.693C113.296 518 113.761 513.109 115.638 508.69L117.618 444.118C110.543 398.267 144.26 368.364 144.26 368.364H194.768L205.612 405.62C212.78 475.46 211.48 543.518 200.104 609.454L200.414 609.611C201.531 609.996 202.01 611.543 201.484 613.066C200.959 614.589 199.627 615.511 198.511 615.126L171.837 614.198C170.72 613.812 170.241 612.265 170.767 610.743C171.292 609.22 172.623 608.298 173.74 608.683L175.554 609.6L171.686 542.803L172.115 530.602L171.231 516.76L167.142 454.499L151.666 531.062L135.858 613.995C136.294 614.39 136.6 614.907 136.735 615.48C136.871 616.052 136.83 616.652 136.618 617.2C136.405 617.749 136.031 618.22 135.546 618.552C135.06 618.884 134.485 619.06 133.897 619.058H112.312C111.538 619.058 110.796 618.751 110.249 618.204C109.702 617.657 109.395 616.915 109.395 616.141C109.395 615.368 109.702 614.626 110.249 614.079C110.796 613.532 111.538 613.224 112.312 613.224V613.224Z" fill="#2F2E41"/>
<path d="M107.061 417.108C106.097 416.179 105.349 415.05 104.869 413.8C104.388 412.55 104.188 411.211 104.282 409.875C104.375 408.54 104.761 407.241 105.41 406.07C106.06 404.9 106.959 403.886 108.043 403.101L121.5 320.5L137.283 326.053L121.29 405.623C122.489 407.532 122.946 409.814 122.575 412.037C122.204 414.26 121.031 416.27 119.277 417.686C117.523 419.101 115.31 419.825 113.059 419.718C110.808 419.612 108.673 418.683 107.061 417.108H107.061Z" fill="#FFB6B6"/>
<path d="M132.145 278.367C132.145 278.367 127.619 276.661 125.976 286.778C124.66 294.878 111.819 343.766 113.034 355.094C111.527 355.622 110.238 356.636 109.371 357.977C108.504 359.318 108.108 360.909 108.245 362.5L131.923 362.621C135.549 358.667 136.019 353.896 134.268 352.723L137.544 338.269L152.972 291.637L135.44 279.542L132.145 278.367Z" fill="#CCCCCC"/>
<path d="M216.074 420.625C217.114 419.782 217.956 418.721 218.542 417.517C219.128 416.314 219.443 414.996 219.465 413.658C219.486 412.319 219.214 410.992 218.668 409.77C218.121 408.548 217.313 407.461 216.301 406.585L211.5 323.5L193.799 327.306L202.885 407.958C201.527 409.756 200.875 411.99 201.053 414.237C201.231 416.484 202.228 418.588 203.853 420.149C205.479 421.71 207.621 422.621 209.873 422.709C212.125 422.796 214.332 422.055 216.074 420.625L216.074 420.625Z" fill="#FFB6B6"/>
<path d="M203.021 280.24C203.021 280.24 207.678 278.929 208.444 289.15C209.057 297.333 217.644 347.146 215.459 358.327C216.915 358.982 218.111 360.104 218.86 361.514C219.608 362.925 219.866 364.544 219.593 366.117L195.992 364.2C192.72 359.949 192.662 355.155 194.508 354.137L192.488 339.455L181.13 291.668L199.638 281.127L203.021 280.24Z" fill="#CCCCCC"/>
<path d="M158.699 260.938C171.885 260.938 182.574 250.248 182.574 237.062C182.574 223.876 171.885 213.186 158.699 213.186C145.512 213.186 134.823 223.876 134.823 237.062C134.823 250.248 145.512 260.938 158.699 260.938Z" fill="#FFB8B8"/>
<path d="M111.248 287.239C106.195 285.449 101.143 283.655 96.0903 281.858C96.9611 280.397 98.0702 279.091 99.3715 277.996C104.182 273.979 110.822 273.253 116.929 271.898C123.047 270.543 129.686 267.765 131.922 261.919C134.245 255.84 130.877 249.278 128.922 243.083C126.183 234.44 126.241 224.79 129.909 216.505C133.577 208.219 141.03 201.502 149.877 199.527C158.724 197.563 168.722 200.766 174.162 208.006C177.667 206.955 181.435 207.223 184.755 208.76C188.076 210.298 190.718 212.997 192.184 216.35C193.452 219.524 193.491 223.348 191.604 226.203C189.716 229.058 185.68 230.52 182.641 228.933L184.402 224.461C178.953 226.31 175.411 236.163 176.146 241.873C176.872 247.574 180.202 252.569 183.58 257.224C186.958 261.88 190.558 266.584 192.01 272.15C194.101 280.154 191.275 288.904 186.048 295.321C180.821 301.739 173.455 306.094 165.828 309.298C160.119 311.698 154.186 313.527 148.115 314.757C149.2 312.647 150.274 310.537 151.358 308.427L138.494 316.209C136.007 316.451 133.5 316.596 130.993 316.644C123.695 316.77 116.252 316.006 109.573 313.092C102.885 310.169 97.0098 304.875 94.5901 297.993C93.8143 295.767 93.4471 293.419 93.5061 291.063C99.4199 289.785 105.334 288.511 111.248 287.239Z" fill="#2F2E41"/>
<path d="M87.1692 642.763C86.4291 642.797 85.6964 642.603 85.0705 642.206C84.4445 641.81 83.9555 641.231 83.6697 640.547C83.3839 639.864 83.3151 639.109 83.4727 638.385C83.6302 637.661 84.0065 637.003 84.5505 636.5C84.6416 636.138 84.707 635.878 84.7981 635.516C84.7655 635.437 84.7327 635.359 84.6997 635.28C83.9541 633.519 82.7048 632.017 81.1087 630.964C79.5125 629.911 77.6407 629.353 75.7283 629.36C73.816 629.367 71.9484 629.939 70.3601 631.004C68.7718 632.069 67.5337 633.58 66.8012 635.346C63.8738 642.397 60.1468 649.459 59.2291 656.914C58.8249 660.209 58.9954 663.55 59.733 666.786C52.8574 651.788 49.287 635.487 49.264 618.988C49.2626 614.847 49.4926 610.71 49.953 606.596C50.3336 603.222 50.8615 599.873 51.5368 596.548C55.222 578.507 63.1343 561.597 74.6238 547.207C80.1847 544.172 84.6819 539.507 87.5094 533.838C88.5337 531.8 89.2577 529.625 89.6587 527.38C89.0314 527.462 88.3938 527.513 87.7665 527.554C87.5711 527.565 87.3655 527.575 87.1701 527.585L87.0964 527.589C86.4069 527.619 85.7232 527.45 85.1276 527.102C84.532 526.753 84.0499 526.24 83.7392 525.624C83.4285 525.007 83.3026 524.315 83.3766 523.628C83.4506 522.942 83.7213 522.292 84.1562 521.756C84.4271 521.423 84.6981 521.09 84.9693 520.757C85.3807 520.243 85.8023 519.739 86.2136 519.225C86.2611 519.176 86.3058 519.124 86.3473 519.07C86.8204 518.484 87.2934 517.908 87.7665 517.322C86.903 515.982 85.7416 514.859 84.3729 514.041C79.632 511.265 73.0916 513.188 69.667 517.476C66.2323 521.765 65.5844 527.781 66.7773 533.138C67.9504 537.697 69.8909 542.024 72.5157 545.931C72.2585 546.261 71.9911 546.579 71.7341 546.908C67.0343 552.952 62.9382 559.441 59.5043 566.283C60.3394 558.618 59.3428 550.864 56.5964 543.659C53.8129 536.944 48.5957 531.289 44.0014 525.484C38.4828 518.511 27.1664 521.554 26.1942 530.393C26.1848 530.479 26.1756 530.564 26.1666 530.65C26.849 531.035 27.517 531.443 28.1706 531.876C28.9917 532.424 29.6279 533.208 29.9959 534.124C30.3639 535.041 30.4465 536.047 30.2329 537.011C30.0194 537.975 29.5195 538.852 28.7989 539.527C28.0783 540.202 27.1706 540.644 26.1946 540.795L26.0947 540.81C26.3378 543.27 26.7675 545.707 27.3801 548.101C29.1553 554.786 32.2922 561.031 36.5942 566.446C40.8961 571.861 46.2704 576.329 52.38 579.57C52.7811 579.775 53.1719 579.981 53.573 580.176C50.123 589.953 47.9589 600.137 47.1353 610.472C46.669 616.57 46.6965 622.695 47.2176 628.788L47.1867 628.572C45.8703 621.797 42.256 615.683 36.9543 611.264C29.08 604.796 17.9549 602.414 9.45988 597.214C8.55705 596.635 7.50728 596.325 6.43439 596.323C5.36151 596.32 4.31028 596.624 3.40464 597.2C2.499 597.775 1.77674 598.597 1.32307 599.569C0.869395 600.542 0.703227 601.623 0.844153 602.687C0.855533 602.763 0.867132 602.838 0.878912 602.914C2.14527 603.43 3.37824 604.024 4.57072 604.693C5.25314 605.078 5.92116 605.487 6.57474 605.919C7.39582 606.467 8.03203 607.251 8.40003 608.168C8.76803 609.084 8.85062 610.09 8.63703 611.054C8.42344 612.018 7.9236 612.895 7.20301 613.571C6.48241 614.246 5.57468 614.688 4.59873 614.838L4.49872 614.853C4.42672 614.864 4.36505 614.874 4.29316 614.884C6.45691 620.051 9.49379 624.806 13.2708 628.942C17.9367 633.949 23.5761 637.95 29.8432 640.699C36.1102 643.449 42.8729 644.89 49.7166 644.933H49.7269C51.5846 653.006 54.2763 660.864 57.7586 668.38H86.4502C86.5531 668.062 86.6456 667.733 86.7382 667.414C84.0824 667.581 81.4162 667.422 78.799 666.941C80.9278 664.329 83.0565 661.696 85.1853 659.084C85.2328 659.035 85.2774 658.984 85.319 658.93C86.3988 657.593 87.4889 656.266 88.5686 654.929L88.5692 654.928C88.6268 650.83 88.1565 646.741 87.1701 642.764L87.1692 642.763Z" fill="#F2F2F2"/>
</g>
<defs>
<clipPath id="clip0_101_2">
<rect width="570.222" height="670.696" fill="white" transform="translate(0.77832)"/>
</clipPath>
</defs>
</svg>
